<svg width="36" height="36" viewBox="0 0 36 36" fill="none" xmlns="http://www.w3.org/2000/svg">
<path d="M34.016 23.0817C35.1121 23.0817 36.0007 22.1932 36.0007 21.097C36.0007 20.0009 35.1121 19.1123 34.016 19.1123C32.9198 19.1123 32.0312 20.0009 32.0312 21.097C32.0312 22.1932 32.9198 23.0817 34.016 23.0817Z" fill="#D1ADF9"/>
<path d="M34.016 16.8864C35.1121 16.8864 36.0007 15.9979 36.0007 14.9017C36.0007 13.8056 35.1121 12.917 34.016 12.917C32.9198 12.917 32.0312 13.8056 32.0312 14.9017C32.0312 15.9979 32.9198 16.8864 34.016 16.8864Z" fill="#D1ADF9"/>
<path d="M27.9203 23.0817C29.0164 23.0817 29.905 22.1932 29.905 21.097C29.905 20.0009 29.0164 19.1123 27.9203 19.1123C26.8241 19.1123 25.9355 20.0009 25.9355 21.097C25.9355 22.1932 26.8241 23.0817 27.9203 23.0817Z" fill="#D1ADF9"/>
<path d="M27.9203 16.8864C29.0164 16.8864 29.905 15.9979 29.905 14.9017C29.905 13.8056 29.0164 12.917 27.9203 12.917C26.8241 12.917 25.9355 13.8056 25.9355 14.9017C25.9355 15.9979 26.8241 16.8864 27.9203 16.8864Z" fill="#D1ADF9"/>
<path d="M1.98473 16.8864C3.08086 16.8864 3.96945 15.9979 3.96945 14.9017C3.96945 13.8056 3.08086 12.917 1.98473 12.917C0.888592 12.917 0 13.8056 0 14.9017C0 15.9979 0.888592 16.8864 1.98473 16.8864Z" fill="#D1ADF9"/>
<path d="M1.98473 23.0817C3.08086 23.0817 3.96945 22.1932 3.96945 21.097C3.96945 20.0009 3.08086 19.1123 1.98473 19.1123C0.888592 19.1123 0 20.0009 0 21.097C0 22.1932 0.888592 23.0817 1.98473 23.0817Z" fill="#D1ADF9"/>
<path d="M8.18004 16.8864C9.27617 16.8864 10.1648 15.9979 10.1648 14.9017C10.1648 13.8056 9.27617 12.917 8.18004 12.917C7.0839 12.917 6.19531 13.8056 6.19531 14.9017C6.19531 15.9979 7.0839 16.8864 8.18004 16.8864Z" fill="#D1ADF9"/>
<path d="M8.18004 23.0817C9.27617 23.0817 10.1648 22.1932 10.1648 21.097C10.1648 20.0009 9.27617 19.1123 8.18004 19.1123C7.0839 19.1123 6.19531 20.0009 6.19531 21.097C6.19531 22.1932 7.0839 23.0817 8.18004 23.0817Z" fill="#D1ADF9"/>
<path d="M21.0941 3.96945C22.1902 3.96945 23.0788 3.08087 23.0788 1.98473C23.0788 0.888597 22.1902 0 21.0941 0C19.998 0 19.1094 0.888597 19.1094 1.98473C19.1094 3.08087 19.998 3.96945 21.0941 3.96945Z" fill="#D1ADF9"/>
<path d="M14.9027 3.96945C15.9988 3.96945 16.8874 3.08087 16.8874 1.98473C16.8874 0.888597 15.9988 0 14.9027 0C13.8066 0 12.918 0.888597 12.918 1.98473C12.918 3.08087 13.8066 3.96945 14.9027 3.96945Z" fill="#D1ADF9"/>
<path d="M21.0941 10.0642C22.1902 10.0642 23.0788 9.17559 23.0788 8.07946C23.0788 6.98332 22.1902 6.09473 21.0941 6.09473C19.998 6.09473 19.1094 6.98332 19.1094 8.07946C19.1094 9.17559 19.998 10.0642 21.0941 10.0642Z" fill="#D1ADF9"/>
<path d="M14.9027 10.0642C15.9988 10.0642 16.8874 9.17559 16.8874 8.07946C16.8874 6.98332 15.9988 6.09473 14.9027 6.09473C13.8066 6.09473 12.918 6.98332 12.918 8.07946C12.918 9.17559 13.8066 10.0642 14.9027 10.0642Z" fill="#D1ADF9"/>
<path d="M14.9027 35.9997C15.9988 35.9997 16.8874 35.1111 16.8874 34.015C16.8874 32.9189 15.9988 32.0303 14.9027 32.0303C13.8066 32.0303 12.918 32.9189 12.918 34.015C12.918 35.1111 13.8066 35.9997 14.9027 35.9997Z" fill="#D1ADF9"/>
<path d="M21.0941 35.9997C22.1902 35.9997 23.0788 35.1111 23.0788 34.015C23.0788 32.9189 22.1902 32.0303 21.0941 32.0303C19.998 32.0303 19.1094 32.9189 19.1094 34.015C19.1094 35.1111 19.998 35.9997 21.0941 35.9997Z" fill="#D1ADF9"/>
<path d="M14.9027 29.8044C15.9988 29.8044 16.8874 28.9158 16.8874 27.8197C16.8874 26.7235 15.9988 25.835 14.9027 25.835C13.8066 25.835 12.918 26.7235 12.918 27.8197C12.918 28.9158 13.8066 29.8044 14.9027 29.8044Z" fill="#D1ADF9"/>
<path d="M21.0941 29.8044C22.1902 29.8044 23.0788 28.9158 23.0788 27.8197C23.0788 26.7235 22.1902 25.835 21.0941 25.835C19.998 25.835 19.1094 26.7235 19.1094 27.8197C19.1094 28.9158 19.998 29.8044 21.0941 29.8044Z" fill="#D1ADF9"/>
<path d="M4.45543 10.8112C5.55156 10.8112 6.44016 9.92266 6.44016 8.82653C6.44016 7.73039 5.55156 6.8418 4.45543 6.8418C3.3593 6.8418 2.4707 7.73039 2.4707 8.82653C2.4707 9.92266 3.3593 10.8112 4.45543 10.8112Z" fill="#D1ADF9"/>
<path d="M8.83434 6.43332C9.93047 6.43332 10.8191 5.54472 10.8191 4.44859C10.8191 3.35245 9.93047 2.46387 8.83434 2.46387C7.7382 2.46387 6.84961 3.35245 6.84961 4.44859C6.84961 5.54472 7.7382 6.43332 8.83434 6.43332Z" fill="#D1ADF9"/>
<path d="M27.7113 6.43332C28.8074 6.43332 29.696 5.54472 29.696 4.44859C29.696 3.35245 28.8074 2.46387 27.7113 2.46387C26.6152 2.46387 25.7266 3.35245 25.7266 4.44859C25.7266 5.54472 26.6152 6.43332 27.7113 6.43332Z" fill="#D1ADF9"/>
<path d="M32.0921 10.8112C33.1883 10.8112 34.0769 9.92266 34.0769 8.82653C34.0769 7.73039 33.1883 6.8418 32.0921 6.8418C30.996 6.8418 30.1074 7.73039 30.1074 8.82653C30.1074 9.92266 30.996 10.8112 32.0921 10.8112Z" fill="#D1ADF9"/>
<path d="M32.0921 29.1237C33.1883 29.1237 34.0769 28.2352 34.0769 27.139C34.0769 26.0429 33.1883 25.1543 32.0921 25.1543C30.996 25.1543 30.1074 26.0429 30.1074 27.139C30.1074 28.2352 30.996 29.1237 32.0921 29.1237Z" fill="#D1ADF9"/>
<path d="M27.7113 33.5026C28.8074 33.5026 29.696 32.6141 29.696 31.5179C29.696 30.4218 28.8074 29.5332 27.7113 29.5332C26.6152 29.5332 25.7266 30.4218 25.7266 31.5179C25.7266 32.6141 26.6152 33.5026 27.7113 33.5026Z" fill="#D1ADF9"/>
<path d="M8.83434 33.5026C9.93047 33.5026 10.8191 32.6141 10.8191 31.5179C10.8191 30.4218 9.93047 29.5332 8.83434 29.5332C7.7382 29.5332 6.84961 30.4218 6.84961 31.5179C6.84961 32.6141 7.7382 33.5026 8.83434 33.5026Z" fill="#D1ADF9"/>
<path d="M4.45543 29.1237C5.55156 29.1237 6.44016 28.2352 6.44016 27.139C6.44016 26.0429 5.55156 25.1543 4.45543 25.1543C3.3593 25.1543 2.4707 26.0429 2.4707 27.139C2.4707 28.2352 3.3593 29.1237 4.45543 29.1237Z" fill="#D1ADF9"/>
<path d="M20.3545 15.6465H15.748V20.2529H20.3545V15.6465Z" fill="#D1ADF9"/>
</svg>
